<svg width="17" height="12" viewBox="0 0 17 12" fill="none" xmlns="http://www.w3.org/2000/svg">
<path d="M5.47722 9.99036H5.478C5.47865 9.99036 5.47929 9.99023 5.47994 9.99023H14.5098C14.7321 9.99023 14.9275 9.84276 14.9886 9.62902L16.9808 2.65636C17.0237 2.50604 16.9936 2.34444 16.8996 2.21967C16.8055 2.09489 16.6582 2.02148 16.502 2.02148H4.3286L3.97257 0.419304C3.92186 0.191421 3.71979 0.0292969 3.48633 0.0292969H0.498047C0.222954 0.0292969 0 0.252251 0 0.527344C0 0.802437 0.222954 1.02539 0.498047 1.02539H3.08685C3.14989 1.3093 4.79059 8.69259 4.88501 9.11735C4.35571 9.34744 3.98438 9.87519 3.98438 10.4883C3.98438 11.3121 4.65466 11.9824 5.47852 11.9824H14.5098C14.7849 11.9824 15.0078 11.7595 15.0078 11.4844C15.0078 11.2093 14.7849 10.9863 14.5098 10.9863H5.47852C5.20394 10.9863 4.98047 10.7629 4.98047 10.4883C4.98047 10.2141 5.20316 9.99101 5.47722 9.99036ZM15.8417 3.01758L14.134 8.99414H5.87799L4.54987 3.01758H15.8417Z" fill="white"/>
</svg>
